<svg width="20" height="20" viewBox="0 0 20 20" fill="none" xmlns="http://www.w3.org/2000/svg">
<path d="M18.5075 4.42676L17.4575 3.04858L17.2868 3.17984C14.2155 0.764747 9.31967 0.948504 5.51327 3.87549C1.70688 6.80248 0.249951 11.4883 1.79876 15.0584L1.62813 15.1897L2.67817 16.5678C5.48702 20.2299 11.3016 20.4661 15.6724 17.1191C20.0432 13.7721 21.3164 8.08877 18.5075 4.42676Z" fill="#00C181"/>
<path d="M14.6224 15.7409C10.2516 19.1011 4.43697 18.8517 1.62812 15.1897C-1.18074 11.5408 0.0793086 5.85745 4.4501 2.49732C8.82089 -0.862802 14.6355 -0.613418 17.4443 3.04859C20.2532 6.71061 18.9932 12.3939 14.6224 15.7409Z" fill="#6AECB1"/>
<path fill-rule="evenodd" clip-rule="evenodd" d="M17.3403 3.12848C14.5882 -0.459455 8.86147 -0.728368 4.53019 2.60139C0.198688 5.93131 -1.01959 11.5348 1.73222 15.1096L1.73236 15.1098C4.4844 18.6977 10.2112 18.9667 14.5425 15.6369L14.5426 15.6367C18.8737 12.3202 20.0925 6.7166 17.3403 3.12848ZM4.37019 2.39327C8.78048 -0.997222 14.6829 -0.767366 17.5486 2.96872C20.4141 6.7046 19.1128 12.4676 14.7023 15.8451C10.2921 19.2355 4.38971 19.0056 1.52406 15.2696C-1.34167 11.5466 -0.039818 5.78355 4.37019 2.39327Z" fill="#C5F9E0"/>
<path d="M13.0605 13.7065C10.0154 16.0429 5.98588 15.9116 4.03018 13.4309L3.9908 13.3784C2.04823 10.8452 2.95389 6.88128 6.02526 4.53182C9.08349 2.18236 13.1524 2.32674 15.095 4.85996L15.1343 4.91246C17.0113 7.44568 16.1056 11.3702 13.0605 13.7065Z" fill="url(#paint0_linear_0:2168)"/>
<path d="M13.323 14.1003C10.2779 16.4366 6.24841 16.3054 4.29271 13.8246C2.40264 11.2914 3.3083 7.3669 6.35341 5.03056C9.39853 2.69423 13.4281 2.82548 15.3837 5.3062C17.2738 7.83942 16.3682 11.7639 13.323 14.1003Z" fill="#01C282"/>
<path d="M10.6401 10.1332C10.6603 9.51443 10.3679 8.93552 9.85788 8.58465C9.34789 8.23378 8.7027 8.16766 8.13208 8.40773L6.75697 8.98612C6.52884 9.08206 6.3416 9.24547 6.2156 9.4585C6.08957 9.67157 6.03664 9.91432 6.06241 10.1606C6.08837 10.4068 6.19068 10.6333 6.35826 10.8155C6.52585 10.9978 6.74305 11.1186 6.9863 11.165L7.00262 11.1681C7.61186 11.2889 8.1476 11.6603 8.47452 12.1889C8.55887 12.3252 8.66848 12.4403 8.79775 12.5292C8.86804 12.5775 8.94423 12.6182 9.02526 12.6504C9.25536 12.7418 9.50344 12.7564 9.74273 12.6926C9.9819 12.6288 10.1898 12.4926 10.3438 12.2987C10.4978 12.1048 10.5834 11.8716 10.5916 11.6242L10.6401 10.1332Z" fill="white"/>
<path d="M7.5914 7.9318C7.87782 7.96147 8.15799 7.86082 8.38028 7.64834C8.59185 7.44617 8.72589 7.1647 8.75769 6.85568C8.78935 6.54681 8.7154 6.24398 8.54947 6.0029C8.37515 5.74971 8.12142 5.59403 7.8353 5.56473C7.25993 5.50533 6.73689 5.98799 6.66929 6.641C6.61609 7.16106 6.86773 7.63421 7.26312 7.83502C7.36407 7.8863 7.47441 7.91981 7.5914 7.9318Z" fill="white"/>
<path d="M9.65474 7.74111C10.2565 8.04675 11.0294 7.73762 11.3776 7.05201C11.7259 6.36622 11.5197 5.55965 10.9179 5.25401C10.3162 4.9484 9.5433 5.25767 9.195 5.94346C8.84678 6.62908 9.05302 7.4355 9.65474 7.74111Z" fill="white"/>
<path d="M11.3844 9.00395L11.3844 9.00398C11.4614 9.08172 11.5484 9.14437 11.6424 9.19213C12.0813 9.41502 12.6712 9.31282 13.0837 8.90481C13.3212 8.66997 13.4668 8.36804 13.4936 8.05469C13.5217 7.72669 13.418 7.42558 13.2016 7.20676C12.9851 6.98791 12.685 6.88096 12.3568 6.90547C12.0432 6.92889 11.7397 7.0712 11.5023 7.3061C11.0014 7.80159 10.9485 8.56325 11.3844 9.00395Z" fill="white"/>
<path d="M13.7565 10.0261L13.7564 10.0258C13.4971 9.50849 12.8089 9.32614 12.2222 9.61943C11.6357 9.91313 11.369 10.573 11.6275 11.0902C11.7218 11.2789 11.8732 11.4231 12.0559 11.5159C12.3744 11.6777 12.7884 11.6834 13.1618 11.497C13.7482 11.2033 14.015 10.5435 13.7565 10.0261Z" fill="white"/>
<defs>
<linearGradient id="paint0_linear_0:2168" x1="3.97173" y1="13.3924" x2="17.8002" y2="2.78007" gradientUnits="userSpaceOnUse">
<stop stop-color="#4AF0A4"/>
<stop offset="0.1935" stop-color="#28D98D"/>
<stop offset="0.6935" stop-color="#10BB72"/>
<stop offset="1" stop-color="#72EFB6"/>
</linearGradient>
</defs>
</svg>
