<svg width="12" height="17" viewBox="0 0 12 17" fill="none" xmlns="http://www.w3.org/2000/svg">
<path d="M3.20133 9.91874C3.89285 10.3813 4.65417 10.6558 5.42741 10.7662L5.39742 13.1154L4.1493 13.0997C3.76206 13.0949 3.4445 13.4044 3.43942 13.7915C3.43462 14.1787 3.74399 14.4966 4.13171 14.5013L5.37983 14.5169L5.35996 16.065C5.35536 16.452 5.66472 16.7698 6.05225 16.7748C6.43949 16.7796 6.75704 16.47 6.76213 16.083L6.78171 14.5347L8.03012 14.5506C8.41735 14.5554 8.73491 14.2459 8.74 13.8588C8.74292 13.6124 8.61885 13.3945 8.42806 13.2669C8.31912 13.194 8.18875 13.1506 8.04771 13.149L6.7993 13.1331L6.82919 10.7847C8.33841 10.6049 9.76407 9.79614 10.6735 8.4367C12.325 5.96802 11.6601 2.616 9.19145 0.964531C6.72278 -0.686942 3.37076 -0.0220977 1.71928 2.44657C0.0678115 4.91524 0.732368 8.26707 3.20133 9.91874ZM8.41219 2.12939C10.2386 3.35119 10.7301 5.83086 9.50854 7.65695C8.28693 9.48304 5.80687 9.97519 3.98079 8.75359C2.1547 7.53198 1.66284 5.05212 2.88463 3.22574C4.10643 1.39936 6.58581 0.907597 8.41219 2.12939Z" fill="#FD90AA"/>
</svg>
