<svg width="36" height="36" viewBox="0 0 36 36" fill="none" xmlns="http://www.w3.org/2000/svg">
<circle cx="18" cy="18" r="17.5" fill="white" stroke="#F2F2F2"/>
<path fill-rule="evenodd" clip-rule="evenodd" d="M6 18.018C6 11.6965 11.052 6 18.024 6C24.84 6 30 11.5884 30 17.982C30 25.3971 23.952 30 18 30C16.032 30 13.848 29.4712 12.096 28.4377C11.484 28.0651 10.968 27.7887 10.308 28.005L7.884 28.7261C7.272 28.9184 6.72 28.4377 6.9 27.7887L7.704 25.0966C7.836 24.7241 7.812 24.3275 7.62 24.015C6.588 22.1162 6 20.0371 6 18.018ZM16.4399 18.018C16.4399 18.8713 17.1239 19.5563 17.9759 19.5683C18.8279 19.5683 19.5119 18.8713 19.5119 18.03C19.5119 17.1768 18.8279 16.4917 17.9759 16.4917C17.1359 16.4797 16.4399 17.1768 16.4399 18.018ZM21.972 18.03C21.972 18.8713 22.656 19.5683 23.508 19.5683C24.36 19.5683 25.044 18.8713 25.044 18.03C25.044 17.1768 24.36 16.4917 23.508 16.4917C22.656 16.4917 21.972 17.1768 21.972 18.03ZM12.444 19.5683C11.604 19.5683 10.908 18.8713 10.908 18.03C10.908 17.1768 11.592 16.4917 12.444 16.4917C13.296 16.4917 13.98 17.1768 13.98 18.03C13.98 18.8713 13.296 19.5563 12.444 19.5683Z" fill="#00C181"/>
</svg>
