<svg width="18" height="18" viewBox="0 0 18 18" fill="#fff" xmlns="http://www.w3.org/2000/svg">
<path d="M8.57212 0C13.4007 0 17.1435 3.53714 17.1435 8.31429C17.1435 13.0914 13.4007 16.6286 8.57212 16.6286C7.73396 16.6305 6.89934 16.5198 6.09069 16.2993C5.93877 16.2573 5.777 16.2692 5.63283 16.3329L3.92926 17.0836C3.82646 17.1289 3.71411 17.1482 3.60207 17.14C3.49003 17.1317 3.38173 17.0961 3.28667 17.0362C3.19161 16.9764 3.1127 16.8941 3.05686 16.7966C3.00102 16.6991 2.96996 16.5894 2.96641 16.4771L2.91998 14.9529C2.91683 14.8601 2.89481 14.7689 2.85527 14.6849C2.81572 14.6009 2.75948 14.5258 2.68998 14.4643C1.82998 13.6895 1.14523 12.7401 0.681464 11.6796C0.217701 10.619 -0.0143919 9.47171 0.000690691 8.31429C0.000690691 3.53714 3.74355 0 8.57212 0ZM3.42498 10.7457C3.37404 10.8264 3.35306 10.9224 3.36571 11.017C3.37835 11.1116 3.42382 11.1987 3.49416 11.2632C3.5645 11.3277 3.65526 11.3654 3.75058 11.3698C3.8459 11.3741 3.93973 11.3449 4.01569 11.2871L6.71998 9.23429C6.80935 9.16706 6.91815 9.13071 7.02998 9.13071C7.14181 9.13071 7.25061 9.16706 7.33998 9.23429L9.33998 10.7343C9.48205 10.8405 9.64457 10.9162 9.81732 10.9565C9.99006 10.9969 10.1693 11.0011 10.3437 10.9688C10.5181 10.9365 10.684 10.8685 10.8309 10.769C10.9778 10.6695 11.1024 10.5407 11.1971 10.3907L13.715 6.39643C13.7659 6.31574 13.7869 6.21972 13.7742 6.12514C13.7616 6.03056 13.7161 5.94343 13.6458 5.87895C13.5754 5.81448 13.4847 5.77676 13.3894 5.77238C13.2941 5.768 13.2002 5.79724 13.1243 5.855L10.42 7.90786C10.3306 7.97508 10.2218 8.01143 10.11 8.01143C9.99815 8.01143 9.88935 7.97508 9.79998 7.90786L7.79998 6.40786C7.6579 6.30164 7.49538 6.22597 7.32264 6.18562C7.1499 6.14526 6.97067 6.14108 6.79624 6.17335C6.62181 6.20562 6.45594 6.27364 6.30907 6.37312C6.1622 6.47261 6.03751 6.60141 5.94283 6.75143L3.42498 10.7457Z" fill="#66676B"/>
</svg>
