<svg width="14" height="15" viewBox="0 0 14 15" fill="none" xmlns="http://www.w3.org/2000/svg">
<path d="M13.395 1.09461C13.3936 1.07721 13.3884 1.06093 13.3856 1.04363C13.3814 1.01549 13.3779 0.987127 13.3706 0.959884C13.3645 0.938335 13.3551 0.91839 13.3469 0.897579C13.3384 0.87487 13.3314 0.851712 13.3201 0.829965C13.3079 0.805485 13.2921 0.78367 13.2772 0.761278C13.2664 0.745095 13.2581 0.727531 13.246 0.712215C13.217 0.675245 13.1846 0.640941 13.1494 0.61014C13.1484 0.609239 13.1478 0.608402 13.1469 0.607501C13.1372 0.599198 13.1264 0.593594 13.1163 0.585933C13.0896 0.565075 13.0629 0.544571 13.0337 0.527634C13.0176 0.518167 13.0002 0.511755 12.9834 0.503638C12.9578 0.491367 12.9324 0.478389 12.9051 0.469107C12.8866 0.462854 12.8679 0.459141 12.8492 0.454303C12.8226 0.447337 12.7964 0.440082 12.7686 0.43617C12.7465 0.432937 12.7247 0.433018 12.7022 0.431907C12.6817 0.430766 12.6615 0.427148 12.6402 0.428065L8.57543 0.553126C8.17302 0.565487 7.85825 0.897006 7.87329 1.29402C7.88791 1.69133 8.22788 2.00364 8.62934 1.99038L11.0095 1.91734L8.94726 4.2367C8.3232 3.8233 7.6072 3.52517 6.82253 3.38411C3.77729 2.83665 0.86204 4.82997 0.323188 7.82736C-0.215663 10.8247 1.82316 13.7087 4.86804 14.2561C7.91292 14.8034 10.8285 12.8102 11.3674 9.81281C11.6763 8.09431 11.1351 6.41538 10.0458 5.19031L12.075 2.90775L12.248 5.10392C12.2744 5.43798 12.5281 5.70193 12.8482 5.75948C12.9075 5.77013 12.9692 5.77356 13.0323 5.7692C13.4339 5.74063 13.7347 5.39637 13.7035 5.00011L13.395 1.09461ZM9.93034 9.5541C9.53169 11.7716 7.37475 13.2459 5.12243 12.841C2.87012 12.4361 1.36177 10.3025 1.76036 8.08536C2.15895 5.86817 4.31596 4.39355 6.56827 4.79845C8.82059 5.20336 10.329 7.33657 9.93034 9.5541Z" fill="#4552CB"/>
</svg>
