<svg width="30" height="22" viewBox="0 0 30 22" fill="none" xmlns="http://www.w3.org/2000/svg">
<rect x="1.125" y="1" width="28" height="19.3908" rx="4" stroke="#474A57" stroke-width="1.5"/>
<rect opacity="0.4" x="1.82764" y="5.55176" width="26.6194" height="2.15385" fill="url(#paint0_linear_92_1090)"/>
<path fill-rule="evenodd" clip-rule="evenodd" d="M15.6002 7.47076C15.6002 8.66327 14.7487 9.63344 13.702 9.63344C12.6554 9.63344 11.8039 8.66327 11.8039 7.47076C11.8039 6.27796 12.6554 5.30759 13.702 5.30759C14.7487 5.30759 15.6002 6.27796 15.6002 7.47076ZM10.983 11.3461C11.3999 11.186 11.7166 10.8501 11.8747 10.4002C12.0253 9.97209 12.013 9.48877 11.8399 9.03918C11.6668 8.58988 11.3519 8.22311 10.9532 8.0063C10.5343 7.77864 10.0742 7.74157 9.65802 7.90198C8.82076 8.22389 8.43653 9.25855 8.80163 10.2089C9.09327 10.9653 9.77348 11.4428 10.4612 11.4428C10.6368 11.4428 10.8129 11.4117 10.983 11.3461ZM17.3054 11.3489C16.7239 10.4417 15.7335 9.90002 14.6561 9.90002C13.5786 9.90002 12.5882 10.4417 12.0068 11.3489L10.6056 13.5348C10.3731 13.8974 10.2658 14.3165 10.2953 14.7462C10.3248 15.1761 10.4884 15.5764 10.7683 15.9041C11.0484 16.2316 11.4185 16.4554 11.8386 16.5514C12.2587 16.6474 12.6894 16.6064 13.084 16.433L13.1104 16.4213C14.1032 15.9936 15.2378 15.9975 16.2281 16.433C16.4835 16.5453 16.7542 16.6021 17.0273 16.6021C17.1758 16.6021 17.3251 16.5852 17.4731 16.5515C17.8932 16.4556 18.2634 16.2318 18.5436 15.9042C18.8236 15.5768 18.9872 15.1764 19.0168 14.7464C19.0464 14.3165 18.9391 13.8975 18.7066 13.5347L17.3054 11.3489ZM16.98 10.1647H16.9801C17.1411 10.2181 17.3054 10.2437 17.4689 10.2437C18.2323 10.2437 18.9761 9.68808 19.26 8.83425C19.4235 8.34276 19.4127 7.82306 19.2297 7.37101C19.0383 6.89775 18.6834 6.55425 18.2305 6.40369C17.7774 6.25314 17.2875 6.31594 16.8508 6.58037C16.4337 6.83297 16.114 7.24283 15.9508 7.73433C15.6062 8.77115 16.0679 9.86141 16.98 10.1647ZM20.9773 9.91202L20.9776 9.91232C21.6984 10.4461 21.7928 11.5457 21.1883 12.3637C20.8029 12.8837 20.2266 13.1664 19.6726 13.1664C19.3547 13.1664 19.0441 13.0734 18.7813 12.8786C18.0605 12.345 17.966 11.2454 18.5707 10.4275C19.1759 9.60993 20.2555 9.37883 20.9773 9.91202Z" fill="#00C181"/>
<defs>
<linearGradient id="paint0_linear_92_1090" x1="2.20223" y1="6.38423" x2="28.0484" y2="6.38423" gradientUnits="userSpaceOnUse">
<stop stop-color="#4DC591"/>
<stop offset="0.479167" stop-color="#4DC591" stop-opacity="0"/>
<stop offset="1" stop-color="#4DC591"/>
</linearGradient>
</defs>
</svg>
